<mxfile host="app.diagrams.net" modified="2023-06-25T14:45:16.151Z" agent="Mozilla/5.0 (Windows NT 10.0; Win64; x64) AppleWebKit/537.36 (KHTML, like Gecko) Chrome/109.0.0.0 Safari/537.36 Edg/109.0.1518.61" version="21.5.0" etag="ULcGPe1i6chqtWaVqtKm" type="github">
  <diagram name="第 1 页" id="VqMy5Acnx2qbXU6vU2Ca">
    <mxGraphModel>
      <root>
        <mxCell id="0" />
        <mxCell id="1" parent="0" />
      </root>
    </mxGraphModel>
  </diagram>
</mxfile>
